<svg width="65" height="65" viewBox="0 0 65 65" fill="none" xmlns="http://www.w3.org/2000/svg">
<path d="M4.61958 32.4991C4.61958 43.5349 11.0327 53.0719 20.3323 57.5913L7.03333 21.1525C5.43908 24.7227 4.61656 28.5892 4.61958 32.4991ZM51.3201 31.0922C51.3201 27.6465 50.0825 25.2603 49.021 23.403C47.6077 21.1064 46.2831 19.1615 46.2831 16.8649C46.2831 14.302 48.2268 11.9163 50.9647 11.9163C51.0883 11.9163 51.2055 11.9317 51.326 11.9386C46.3658 7.39421 39.7575 4.61963 32.4992 4.61963C22.7593 4.61963 14.1902 9.61706 9.20518 17.1864C9.85928 17.206 10.4757 17.2198 10.9993 17.2198C13.9154 17.2198 18.4294 16.866 18.4294 16.866C19.9323 16.7774 20.1095 18.9848 18.6082 19.1626C18.6082 19.1626 17.0979 19.3403 15.4173 19.4284L25.5699 49.6278L31.6711 31.3288L27.3274 19.4273C25.8261 19.3392 24.4039 19.1615 24.4039 19.1615C22.9015 19.0734 23.0776 16.7763 24.58 16.8649C24.58 16.8649 29.1842 17.2188 31.9236 17.2188C34.8392 17.2188 39.3538 16.8649 39.3538 16.8649C40.8577 16.7763 41.0344 18.9838 39.5325 19.1615C39.5325 19.1615 38.019 19.3392 36.3416 19.4273L46.4168 49.3981L49.1976 40.1051C50.4029 36.2488 51.3201 33.479 51.3201 31.0922Z" fill="#21759B"/>
<path d="M32.9883 34.9379L24.6235 59.2455C27.1809 59.9987 29.8332 60.3812 32.4992 60.3813C35.7458 60.3813 38.8593 59.82 41.7574 58.8009C41.6801 58.679 41.6137 58.5504 41.559 58.4168L32.9883 34.9379ZM56.9625 19.1228C57.0824 20.0109 57.1503 20.9642 57.1503 21.9897C57.1503 24.8189 56.6219 27.9993 55.0304 31.9761L46.5144 56.5987C54.8028 51.7652 60.3778 42.7853 60.3778 32.4997C60.3783 27.6524 59.1401 23.0942 56.9625 19.1228Z" fill="#21759B"/>
<path d="M32.4992 0C14.5796 0 0 14.579 0 32.4992C0 50.4215 14.5796 65 32.4992 65C50.4183 65 65 50.4215 65 32.4992C64.9995 14.579 50.4183 0 32.4992 0ZM32.4992 63.5103C15.4013 63.5103 1.49016 49.5987 1.49016 32.4992C1.49016 15.4008 15.4008 1.49021 32.4992 1.49021C49.5965 1.49021 63.5067 15.4008 63.5067 32.4992C63.5067 49.5987 49.5965 63.5103 32.4992 63.5103Z" fill="#21759B"/>
</svg>
